<svg width="1348" height="1711" viewBox="0 0 1348 1711" fill="none" xmlns="http://www.w3.org/2000/svg">
<path d="M178 453L180 487.5L159.5 604L123.5 673L118.5 691.5L115 857.5L161.5 1016.5L221 1099L230 1131L258.5 1198.5L276.5 1239L336.5 1326L447.5 1495L469 1515.5L665 1597.5L859 1614.5L894 1598.5L995 1529L1057 1482L1126 1416.5L1221 1313L1255 1269L1262 1247V1220L1239 1106V1074.5L1259.5 998.5L1267 905L1270.5 728L1257 535L1249.5 518.5L1238 502.5L935.5 228L915.5 219.5L820 212.5L763 200.5L703.5 177.5L637.5 146.5H615.5L557.5 156.5L504.5 169L418.5 234.5L391 251.5L348.5 268L322 270L300.5 274L228 314.5L197 345L180.5 386L170 427L178 453Z" stroke="white" stroke-width="10"/>
<path d="M511 837L522.5 888L526.5 900L536 910L538.5 915.5L547.5 937.5L566 965.5L602.5 986L620 998.5L638.5 1020.5L651.5 1033L697.5 1057.5L711 1056L724.5 1040.5L731 1037L818.5 1047L856.5 1011.5L925 975.5L949.5 957.5V949L920 903.5L915.5 885L921.5 863.5L920 852.5L907.5 830L904 818V766L893.5 750.5L873 727.5L840.5 702L808.5 661.5L793 656.5L763.5 665L717.5 658L617 665L575.5 716L564 738.5L546 745L526.5 775L511 837Z" stroke="white" stroke-width="8"/>
<path d="M816 787L800 766L769.5 750.5L742 743L692.5 746.5L670.5 759.5L652.5 782L641 807L637 865.5L645 894.5L707 932L741 934L765 928.5L777 920.5L812 877.5L818.5 805L816 787Z" stroke="white" stroke-width="5"/>
<path d="M708.5 824.5L701 847L707 854.5L743 847H758L759 826.5L744 807.5L737.5 805L720.5 809.5L708.5 824.5Z" stroke="white" stroke-width="2"/>
<path d="M706.5 854L719 886.5L709 915.5L707.5 929V937L638 1019.5L548 1111L440 1239.5L335 1326.5L306.5 1348.5L35.5 1471M704.5 851.5L681.5 839.5V834H696L704.5 836.5M715.5 816.5L696 784.5L670.5 760.5L638 726L596 692.5L511.5 627L452.5 600L374 573.5L272.5 524L182.592 488.235M59 353.5L65 365L81.5 384L152 445.5L158 455.5L165 483L182 488L182.592 488.235M182.592 488.235L160 488L110 509.5L96.5 533V538.5M455.5 601L395 472L337 325.5L291.5 261M690 748L683 724L652.5 664.5L641.5 650.5L635.5 604.5L614 537.5L609.5 468M609.5 468L545 396.5L507 372L398.5 282.5L391.5 268.5V251.5L396.5 232.5M609.5 468L598.5 420L581.5 380L552.5 352.5L550 342.5V297L540.5 265L542 106L550 65.5V44L538.5 0.5M758 748V724L763 697V663L773 555L775.5 546L812.5 480.5L846.5 433.5L893.5 373.5L944.5 329L984.5 271.5L1015.5 244.5M784.5 758L794 746.5L806.5 737.5L816.5 735M816.5 735L806.5 744L800.5 766.5M816.5 735L848.5 710.5L877.5 673.5L902.5 658L931 651L953 649.5L1042.5 621L1117.5 587L1194 582.5L1258 568.5L1274 563.5L1295.5 549.5L1347.5 528.5M758 846.5L777 855.5L794 899.5M805.5 887L823 923L832.5 952.5L834.5 988.5L842 1026.5L844 1038.5L835 1154.5L829 1197L809.5 1240V1265M809.5 1265L818 1275M809.5 1265L753 1219.5L744 1178.25M818 1275L812 1332L832 1369L818 1373.5V1421.5L849 1477L859.5 1538L905 1617M818 1275L920.5 1344.5L935 1360.5L944.5 1378L992 1526.5L1010.5 1549M736.5 933.5L732.5 980V1016.5M732.5 1016.5L730.5 1038.5L729 1067L735 1137L744 1178.25M732.5 1016.5L745 985V965L740.5 950V933.5M744 1178.25L724.5 1226.5V1352.5L683.5 1517L668 1594.5L686.5 1653M635 1024.5L616 1110.5L504.5 1296L476 1366.5L438.5 1422L415 1446L409.5 1454L362 1563.5L314 1629.5V1639.5L293 1667.5L285.5 1691.5L266.5 1709.5M811 882L860 930L924 975L993 1021.5L995.615 1021.78M995.615 1021.78L1016.5 1024L1147 1053L1241.5 1117.5L1306 1166.5M995.615 1021.78L993 1006.5L986 997L935 968.5M995.615 1021.78L1002.5 1062L1012 1130L1024 1221L1020.5 1235L1051.5 1373L1061 1387.5L1095.5 1411.5L1127.5 1416.5M811 880L833.5 890L856.5 893.901M1325.5 1092L1289 1053L1252 1027.5L1158 990.5L1116.5 977L1044.5 936L1012 926.5L981 930L919 904.5L856.5 893.901M856.5 893.901L873.5 861.5L919 854L1035.5 814.5M1035.5 814.5L1285.5 722.5M1035.5 814.5V772.5L1031 713V679L1041.5 620.5L1035.5 576L1000 542.5L837 450M1035.5 814.5L1038.5 847.5L1049.5 873.5L1099.5 920L1113 933L1252 1012.5M682.5 834.5H614.5L562 862L523.5 887L310.5 959M310.5 959L132 1010M310.5 959L297.5 914.5L116 758M642 807.5L626 798L445.5 757L319 721.5L306 724L280.5 745L211.5 750.5L187.5 732L166.5 690.5L91 661L52.5 634.5L0.5 622.5M546 938.5L523.5 943L520.5 952L523.5 995.5L474.5 1032L342 1165.5L331 1180L303 1195L287 1216.5L270.5 1225.5L214 1236.5L187.5 1247M665.5 907L658.5 924.5L638.5 938.5L602.5 986L520.5 1094.5L425 1189L398 1210L385.5 1262.5L383.5 1286.5" stroke="white" stroke-width="2"/>
</svg>
